<?xml version="1.0" encoding="UTF-8" standalone="no"?>
<!DOCTYPE svg PUBLIC "-//W3C//DTD SVG 1.1//EN"
 "http://www.w3.org/Graphics/SVG/1.1/DTD/svg11.dtd">
<!-- Generated by graphviz version 2.40.1 (20161225.0304)
 -->
<!-- Title: mygraph Pages: 1 -->
<svg width="928pt" height="404pt"
 viewBox="0.00 0.00 927.89 404.00" xmlns="http://www.w3.org/2000/svg" xmlns:xlink="http://www.w3.org/1999/xlink">
<g id="graph0" class="graph" transform="scale(1 1) rotate(0) translate(4 400)">
<title>mygraph</title>
<polygon fill="#ffffff" stroke="transparent" points="-4,4 -4,-400 923.8901,-400 923.8901,4 -4,4"/>
<!-- //debugger/devtool:devtool -->
<g id="node1" class="node">
<title>//debugger/devtool:devtool</title>
<polygon fill="none" stroke="#000000" points="746.2216,-396 578.9513,-396 578.9513,-360 746.2216,-360 746.2216,-396"/>
<text text-anchor="middle" x="662.5864" y="-373.8" font-family="Times,serif" font-size="14.00" fill="#000000">//debugger/devtool:devtool</text>
</g>
<!-- //debugger/devtool/layout:layout -->
<g id="node2" class="node">
<title>//debugger/devtool/layout:layout</title>
<polygon fill="none" stroke="#000000" points="653.1046,-324 454.0683,-324 454.0683,-288 653.1046,-288 653.1046,-324"/>
<text text-anchor="middle" x="553.5864" y="-301.8" font-family="Times,serif" font-size="14.00" fill="#000000">//debugger/devtool/layout:layout</text>
</g>
<!-- //debugger/devtool:devtool&#45;&gt;//debugger/devtool/layout:layout -->
<g id="edge1" class="edge">
<title>//debugger/devtool:devtool&#45;&gt;//debugger/devtool/layout:layout</title>
<path fill="none" stroke="#000000" d="M635.0811,-359.8314C621.2684,-350.7074 604.3608,-339.539 589.5335,-329.7449"/>
<polygon fill="#000000" stroke="#000000" points="591.356,-326.7541 581.0829,-324.1628 587.4978,-332.5949 591.356,-326.7541"/>
</g>
<!-- //debugger/devtool/scenes:scenes -->
<g id="node3" class="node">
<title>//debugger/devtool/scenes:scenes</title>
<polygon fill="none" stroke="#000000" points="919.6942,-324 717.4786,-324 717.4786,-288 919.6942,-288 919.6942,-324"/>
<text text-anchor="middle" x="818.5864" y="-301.8" font-family="Times,serif" font-size="14.00" fill="#000000">//debugger/devtool/scenes:scenes</text>
</g>
<!-- //debugger/devtool:devtool&#45;&gt;//debugger/devtool/scenes:scenes -->
<g id="edge2" class="edge">
<title>//debugger/devtool:devtool&#45;&gt;//debugger/devtool/scenes:scenes</title>
<path fill="none" stroke="#000000" d="M701.9518,-359.8314C722.7232,-350.2446 748.3848,-338.4008 770.3445,-328.2655"/>
<polygon fill="#000000" stroke="#000000" points="771.8912,-331.4065 779.5041,-324.038 768.9578,-325.0508 771.8912,-331.4065"/>
</g>
<!-- //debugger/devtool/comms:comms -->
<g id="node4" class="node">
<title>//debugger/devtool/comms:comms</title>
<polygon fill="none" stroke="#000000" points="359.0009,-252 148.172,-252 148.172,-216 359.0009,-216 359.0009,-252"/>
<text text-anchor="middle" x="253.5864" y="-229.8" font-family="Times,serif" font-size="14.00" fill="#000000">//debugger/devtool/comms:comms</text>
</g>
<!-- //debugger/devtool/layout:layout&#45;&gt;//debugger/devtool/comms:comms -->
<g id="edge6" class="edge">
<title>//debugger/devtool/layout:layout&#45;&gt;//debugger/devtool/comms:comms</title>
<path fill="none" stroke="#000000" d="M478.271,-287.9243C435.7521,-277.7198 382.4844,-264.9355 338.4874,-254.3762"/>
<polygon fill="#000000" stroke="#000000" points="339.2133,-250.9511 328.6726,-252.0207 337.5796,-257.7578 339.2133,-250.9511"/>
</g>
<!-- //debugger/devtool/explorer:explorer -->
<g id="node8" class="node">
<title>//debugger/devtool/explorer:explorer</title>
<polygon fill="none" stroke="#000000" points="549.901,-180 327.2719,-180 327.2719,-144 549.901,-144 549.901,-180"/>
<text text-anchor="middle" x="438.5864" y="-157.8" font-family="Times,serif" font-size="14.00" fill="#000000">//debugger/devtool/explorer:explorer</text>
</g>
<!-- //debugger/devtool/layout:layout&#45;&gt;//debugger/devtool/explorer:explorer -->
<g id="edge7" class="edge">
<title>//debugger/devtool/layout:layout&#45;&gt;//debugger/devtool/explorer:explorer</title>
<path fill="none" stroke="#000000" d="M539.0216,-287.7623C518.8882,-262.5518 482.4384,-216.9103 459.4263,-188.0952"/>
<polygon fill="#000000" stroke="#000000" points="462.0083,-185.7195 453.033,-180.0896 456.5385,-190.0877 462.0083,-185.7195"/>
</g>
<!-- //debugger/devtool/renderer:renderer -->
<g id="node9" class="node">
<title>//debugger/devtool/renderer:renderer</title>
<polygon fill="none" stroke="#000000" points="745.8736,-252 523.2992,-252 523.2992,-216 745.8736,-216 745.8736,-252"/>
<text text-anchor="middle" x="634.5864" y="-229.8" font-family="Times,serif" font-size="14.00" fill="#000000">//debugger/devtool/renderer:renderer</text>
</g>
<!-- //debugger/devtool/layout:layout&#45;&gt;//debugger/devtool/renderer:renderer -->
<g id="edge8" class="edge">
<title>//debugger/devtool/layout:layout&#45;&gt;//debugger/devtool/renderer:renderer</title>
<path fill="none" stroke="#000000" d="M574.0261,-287.8314C583.9069,-279.0485 595.9188,-268.3712 606.6315,-258.8489"/>
<polygon fill="#000000" stroke="#000000" points="609.0044,-261.4224 614.1532,-252.1628 604.3538,-256.1906 609.0044,-261.4224"/>
</g>
<!-- //debugger/types:types\n//jslibs/hooks:hooks -->
<g id="node7" class="node">
<title>//debugger/types:types\n//jslibs/hooks:hooks</title>
<polygon fill="none" stroke="#000000" points="812.8386,-36 670.3343,-36 670.3343,0 812.8386,0 812.8386,-36"/>
<text text-anchor="middle" x="741.5864" y="-20.8" font-family="Times,serif" font-size="14.00" fill="#000000">//debugger/types:types</text>
<text text-anchor="middle" x="741.5864" y="-6.8" font-family="Times,serif" font-size="14.00" fill="#000000">//jslibs/hooks:hooks</text>
</g>
<!-- //debugger/devtool/scenes:scenes&#45;&gt;//debugger/types:types\n//jslibs/hooks:hooks -->
<g id="edge9" class="edge">
<title>//debugger/devtool/scenes:scenes&#45;&gt;//debugger/types:types\n//jslibs/hooks:hooks</title>
<path fill="none" stroke="#000000" d="M822.8432,-287.5411C829.0894,-256.9581 838.4755,-194.1749 823.5864,-144 812.229,-105.7266 785.1678,-68.2057 765.2243,-44.2028"/>
<polygon fill="#000000" stroke="#000000" points="767.6478,-41.6497 758.5043,-36.2973 762.3143,-46.1834 767.6478,-41.6497"/>
</g>
<!-- //debugger/devtool/comms/components:components -->
<g id="node5" class="node">
<title>//debugger/devtool/comms/components:components</title>
<polygon fill="none" stroke="#000000" points="309.2593,-180 -.0865,-180 -.0865,-144 309.2593,-144 309.2593,-180"/>
<text text-anchor="middle" x="154.5864" y="-157.8" font-family="Times,serif" font-size="14.00" fill="#000000">//debugger/devtool/comms/components:components</text>
</g>
<!-- //debugger/devtool/comms:comms&#45;&gt;//debugger/devtool/comms/components:components -->
<g id="edge3" class="edge">
<title>//debugger/devtool/comms:comms&#45;&gt;//debugger/devtool/comms/components:components</title>
<path fill="none" stroke="#000000" d="M228.6045,-215.8314C216.2936,-206.8779 201.2757,-195.9558 187.9927,-186.2955"/>
<polygon fill="#000000" stroke="#000000" points="189.7063,-183.214 179.5603,-180.1628 185.5891,-188.8752 189.7063,-183.214"/>
</g>
<!-- //debugger/devtool/jslibs:jslibs -->
<g id="node6" class="node">
<title>//debugger/devtool/jslibs:jslibs</title>
<polygon fill="none" stroke="#000000" points="633.7488,-108 445.424,-108 445.424,-72 633.7488,-72 633.7488,-108"/>
<text text-anchor="middle" x="539.5864" y="-85.8" font-family="Times,serif" font-size="14.00" fill="#000000">//debugger/devtool/jslibs:jslibs</text>
</g>
<!-- //debugger/devtool/comms/components:components&#45;&gt;//debugger/devtool/jslibs:jslibs -->
<g id="edge11" class="edge">
<title>//debugger/devtool/comms/components:components&#45;&gt;//debugger/devtool/jslibs:jslibs</title>
<path fill="none" stroke="#000000" d="M251.2412,-143.9243C307.24,-133.4518 377.767,-120.2623 435.053,-109.5491"/>
<polygon fill="#000000" stroke="#000000" points="436.0362,-112.926 445.2224,-107.6473 434.7494,-106.0453 436.0362,-112.926"/>
</g>
<!-- //jslibs/deepEqual:deepEqual -->
<g id="node11" class="node">
<title>//jslibs/deepEqual:deepEqual</title>
<polygon fill="none" stroke="#000000" points="244.3767,-108 64.7962,-108 64.7962,-72 244.3767,-72 244.3767,-108"/>
<text text-anchor="middle" x="154.5864" y="-85.8" font-family="Times,serif" font-size="14.00" fill="#000000">//jslibs/deepEqual:deepEqual</text>
</g>
<!-- //debugger/devtool/comms/components:components&#45;&gt;//jslibs/deepEqual:deepEqual -->
<g id="edge12" class="edge">
<title>//debugger/devtool/comms/components:components&#45;&gt;//jslibs/deepEqual:deepEqual</title>
<path fill="none" stroke="#000000" d="M154.5864,-143.8314C154.5864,-136.131 154.5864,-126.9743 154.5864,-118.4166"/>
<polygon fill="#000000" stroke="#000000" points="158.0865,-118.4132 154.5864,-108.4133 151.0865,-118.4133 158.0865,-118.4132"/>
</g>
<!-- //debugger/devtool/jslibs:jslibs&#45;&gt;//debugger/types:types\n//jslibs/hooks:hooks -->
<g id="edge4" class="edge">
<title>//debugger/devtool/jslibs:jslibs&#45;&gt;//debugger/types:types\n//jslibs/hooks:hooks</title>
<path fill="none" stroke="#000000" d="M590.2988,-71.9243C617.9134,-62.0815 652.2615,-49.8386 681.2465,-39.5073"/>
<polygon fill="#000000" stroke="#000000" points="682.6088,-42.7375 690.8532,-36.0831 680.2585,-36.1438 682.6088,-42.7375"/>
</g>
<!-- //debugger/devtool/explorer:explorer&#45;&gt;//debugger/devtool/jslibs:jslibs -->
<g id="edge5" class="edge">
<title>//debugger/devtool/explorer:explorer&#45;&gt;//debugger/devtool/jslibs:jslibs</title>
<path fill="none" stroke="#000000" d="M464.073,-143.8314C476.7523,-134.7927 492.246,-123.7476 505.892,-114.0198"/>
<polygon fill="#000000" stroke="#000000" points="507.9969,-116.8176 514.108,-108.1628 503.9335,-111.1176 507.9969,-116.8176"/>
</g>
<!-- //debugger/devtool/renderer/hooks:hooks -->
<g id="node10" class="node">
<title>//debugger/devtool/renderer/hooks:hooks</title>
<polygon fill="none" stroke="#000000" points="815.0317,-180 568.1411,-180 568.1411,-144 815.0317,-144 815.0317,-180"/>
<text text-anchor="middle" x="691.5864" y="-157.8" font-family="Times,serif" font-size="14.00" fill="#000000">//debugger/devtool/renderer/hooks:hooks</text>
</g>
<!-- //debugger/devtool/renderer:renderer&#45;&gt;//debugger/devtool/renderer/hooks:hooks -->
<g id="edge10" class="edge">
<title>//debugger/devtool/renderer:renderer&#45;&gt;//debugger/devtool/renderer/hooks:hooks</title>
<path fill="none" stroke="#000000" d="M648.9699,-215.8314C655.535,-207.5386 663.4371,-197.557 670.6442,-188.4533"/>
<polygon fill="#000000" stroke="#000000" points="673.5464,-190.4262 677.0093,-180.4133 668.058,-186.0813 673.5464,-190.4262"/>
</g>
<!-- //debugger/devtool/renderer/hooks:hooks&#45;&gt;//debugger/devtool/jslibs:jslibs -->
<g id="edge13" class="edge">
<title>//debugger/devtool/renderer/hooks:hooks&#45;&gt;//debugger/devtool/jslibs:jslibs</title>
<path fill="none" stroke="#000000" d="M653.2304,-143.8314C633.082,-134.2874 608.2112,-122.5065 586.8782,-112.4013"/>
<polygon fill="#000000" stroke="#000000" points="588.2023,-109.1558 577.6666,-108.038 585.2057,-115.482 588.2023,-109.1558"/>
</g>
</g>
</svg>
